<svg width="256" height="256" viewBox="0 0 256 256" fill="none" xmlns="http://www.w3.org/2000/svg">
<path d="M136.83 220.43C135.655 222.196 133.826 223.423 131.747 223.841C129.667 224.26 127.506 223.835 125.74 222.66C95.6017 202.611 60.198 191.941 24 192C21.8783 192 19.8434 191.157 18.3431 189.657C16.8429 188.157 16 186.122 16 184C16 181.878 16.8429 179.843 18.3431 178.343C19.8434 176.843 21.8783 176 24 176C63.3513 175.939 101.838 187.541 134.6 209.34C136.366 210.515 137.593 212.344 138.011 214.423C138.43 216.503 138.005 218.664 136.83 220.43ZM24 144C21.8783 144 19.8434 144.843 18.3431 146.343C16.8429 147.843 16 149.878 16 152C16 154.122 16.8429 156.157 18.3431 157.657C19.8434 159.157 21.8783 160 24 160C80.5485 159.869 134.867 182.043 175.17 221.71C175.914 222.475 176.802 223.083 177.784 223.499C178.767 223.915 179.822 224.13 180.888 224.133C181.955 224.135 183.011 223.924 183.995 223.512C184.979 223.1 185.87 222.496 186.617 221.734C187.364 220.973 187.951 220.07 188.343 219.078C188.736 218.087 188.926 217.026 188.903 215.96C188.88 214.894 188.644 213.843 188.209 212.869C187.774 211.895 187.149 211.019 186.37 210.29C143.084 167.68 84.7395 143.86 24 144ZM232 160C215.648 159.989 199.347 161.831 183.41 165.49C188.903 169.657 194.237 174.043 199.41 178.65C210.184 176.885 221.083 175.999 232 176C234.122 176 236.157 176.843 237.657 178.343C239.157 179.843 240 181.878 240 184C240 186.122 239.157 188.157 237.657 189.657C236.157 191.157 234.122 192 232 192C226 192 220.07 192.29 214.15 192.86C219.697 198.64 225.01 204.687 230.09 211C230.786 211.815 231.311 212.761 231.634 213.783C231.957 214.805 232.072 215.881 231.971 216.948C231.87 218.015 231.556 219.05 231.047 219.994C230.538 220.937 229.845 221.768 229.009 222.438C228.172 223.108 227.21 223.603 226.179 223.894C225.147 224.185 224.068 224.266 223.005 224.132C221.942 223.998 220.916 223.652 219.99 223.114C219.063 222.576 218.254 221.857 217.61 221C194.422 191.922 164.967 168.457 131.443 152.353C97.9189 136.25 61.1911 127.925 24 128C21.8783 128 19.8434 127.157 18.3431 125.657C16.8429 124.157 16 122.122 16 120C16 117.878 16.8429 115.843 18.3431 114.343C19.8434 112.843 21.8783 112 24 112C40.0997 112.001 56.166 113.467 72 116.38V80C72 78.758 72.2892 77.5331 72.8446 76.4223C73.4 75.3115 74.2064 74.3452 75.2 73.6L139.2 25.6C140.585 24.5614 142.269 24 144 24C145.731 24 147.415 24.5614 148.8 25.6L212.8 73.6C213.794 74.3452 214.6 75.3115 215.155 76.4223C215.711 77.5331 216 78.758 216 80V112.5C221.31 112.18 226.64 112 232 112C234.122 112 236.157 112.843 237.657 114.343C239.157 115.843 240 117.878 240 120C240 122.122 239.157 124.157 237.657 125.657C236.157 127.157 234.122 128 232 128C203.272 127.945 174.755 132.917 147.74 142.69C154.033 146.023 160.187 149.617 166.2 153.47C187.566 147.174 209.726 143.984 232 144C234.122 144 236.157 144.843 237.657 146.343C239.157 147.843 240 149.878 240 152C240 154.122 239.157 156.157 237.657 157.657C236.157 159.157 234.122 160 232 160ZM128.07 133.27C140.996 127.717 154.35 123.215 168 119.81V96H120V130C122.71 131 125.4 132.13 128.07 133.27Z" fill="#11B67B"/>
</svg>
